<?xml version="1.0" encoding="utf-8"?>
<!-- Generator: Adobe Illustrator 26.0.2, SVG Export Plug-In . SVG Version: 6.00 Build 0)  -->
<svg version="1.1" id="Layer_1" xmlns="http://www.w3.org/2000/svg" xmlns:xlink="http://www.w3.org/1999/xlink" x="0px" y="0px"
	 viewBox="0 0 1080 1080" style="enable-background:new 0 0 1080 1080;" xml:space="preserve">
<style type="text/css">
	.st0{fill:#E6E6E6;}
	.st1{fill:#FFFFFF;}
</style>
<g id="Left">
	<path id="Face" class="st0" d="M484,504l-4,85L360,375.3l-192,244l120,77l-59,103l134,9l97.2,263.6l28.8,1.1l-8-34l-14-23l69-22.7
		l1-655.3L484,504z M399.8,634l-29.9,8.8L328,597l72.4,2.3l71.6,86L399.8,634z"/>
	<polygon id="Ear" class="st0" points="340.9,275.9 168.7,25.1 209,443.3 	"/>
</g>
<g id="Right">
	<path id="Face_1_" class="st1" d="M537,338l1,655.3l69,22.7l-14,23l-8,34l28.8-1.1L711,808.3l134-9l-59-103l120-77l-192-244
		L594,589l-4-85L537,338z M602,685.3l71.6-86L746,597l-42,45.7l-29.9-8.8L602,685.3z"/>
	<polygon id="Ear_1_" class="st1" points="733.1,275.9 905.3,25.1 865,443.3 	"/>
</g>
</svg>
