<svg id="Layer_1" data-name="Layer 1" xmlns="http://www.w3.org/2000/svg" viewBox="0 0 1077 1077"><defs><style>.cls-1{fill:#244754;}.cls-2{fill:#fff;}.cls-3{fill:#bdccd4;}</style></defs><title>CoyoteLogo2</title><rect class="cls-1" width="1077" height="1077" rx="168.04"/><path id="Face" class="cls-2" d="M535.4,219.58V929.44L583,941l-25.9,42.67,18.07,8.77L600,991.34l84-277.23,115.72-9.47L748.71,596.33l103.63-81L686.53,258.78,582.9,483.52l-3.46-89.39Zm54.41,365.18,61.83-90.43,62.52-2.4L677.91,540l-25.78-9.23Z" transform="translate(-1.5 -1.5)"/><polygon id="Ear" class="cls-2" points="710.93 236.22 860.34 86.02 829.81 414.12 710.93 236.22"/><path id="Face-2" data-name="Face" class="cls-3" d="M491.36,395l-3.46,89.38L384.27,259.64,218.46,516.22l103.63,81L271.14,705.51,386.86,715,470.81,992.2l24.87,1.14,18.06-8.77-25.9-42.66L535.4,930.3V220.45ZM418.67,531.67l-25.78,9.22-36.25-48.1,62.52,2.41L481,585.63Z" transform="translate(-1.5 -1.5)"/><polygon id="Ear-2" data-name="Ear" class="cls-3" points="363.77 237.95 216.66 85.16 247.19 413.25 363.77 237.95"/></svg>